<svg xmlns="http://www.w3.org/2000/svg" width="63" height="57" viewBox="0 0 63 57">
    <g id="Group_7" data-name="Group 7" transform="translate(-643 -395)">
        <rect id="Rectangle" width="63" height="57" rx="8" transform="translate(643 395)"
            fill="#ed1a23" />
        <g id="Group" transform="translate(652 402)">
            <path id="Path" d="M0,0H44V44H0Z" fill="none" />
            <path id="Path-2" data-name="Path" d="M0,0H7.333V7.333"
                transform="translate(29.333 7.333)" fill="none" stroke="#000" stroke-linecap="round"
                stroke-linejoin="round" stroke-miterlimit="10" stroke-width="2.75" />
            <path id="Path-3" data-name="Path" d="M0,11,11,0" transform="translate(25.667 7.333)"
                fill="none" stroke="#000" stroke-linecap="round" stroke-linejoin="round"
                stroke-miterlimit="10" stroke-width="2.75" />
            <path id="Path-4" data-name="Path" d="M7.333,7.333H0V0"
                transform="translate(7.333 29.333)" fill="none" stroke="#000" stroke-linecap="round"
                stroke-linejoin="round" stroke-miterlimit="10" stroke-width="2.75" />
            <path id="Path-5" data-name="Path" d="M0,11,11,0" transform="translate(7.333 25.667)"
                fill="none" stroke="#000" stroke-linecap="round" stroke-linejoin="round"
                stroke-miterlimit="10" stroke-width="2.75" />
            <path id="Path-6" data-name="Path" d="M0,7.333H7.333V0"
                transform="translate(29.333 29.333)" fill="none" stroke="#000"
                stroke-linecap="round" stroke-linejoin="round" stroke-miterlimit="10"
                stroke-width="2.75" />
            <path id="Path-7" data-name="Path" d="M0,0,11,11" transform="translate(25.667 25.667)"
                fill="none" stroke="#000" stroke-linecap="round" stroke-linejoin="round"
                stroke-miterlimit="10" stroke-width="2.75" />
            <path id="Path-8" data-name="Path" d="M7.333,0H0V7.333"
                transform="translate(7.333 7.333)" fill="none" stroke="#000" stroke-linecap="round"
                stroke-linejoin="round" stroke-miterlimit="10" stroke-width="2.75" />
            <path id="Path-9" data-name="Path" d="M0,0,11,11" transform="translate(7.333 7.333)"
                fill="none" stroke="#000" stroke-linecap="round" stroke-linejoin="round"
                stroke-miterlimit="10" stroke-width="2.75" />
        </g>
    </g>
</svg>
